<?xml version="1.0" encoding="UTF-8" standalone="no"?>
<!DOCTYPE svg PUBLIC "-//W3C//DTD SVG 20010904//EN"
              "http://www.w3.org/TR/2001/REC-SVG-20010904/DTD/svg10.dtd">

<svg xmlns="http://www.w3.org/2000/svg"
     width="11.875in" height="11.7778in"
     viewBox="0 0 855 848">
  <path id="Selection"
        fill="none" stroke="black" stroke-width="1"
        d="M 0.00,0.00
           C 0.00,0.00 855.00,0.00 855.00,0.00
             855.00,0.00 855.00,848.00 855.00,848.00
             855.00,848.00 0.00,848.00 0.00,848.00
             0.00,848.00 0.00,0.00 0.00,0.00 Z
           M 850.00,1.00
           C 850.00,1.00 2.00,1.00 2.00,1.00
             2.00,1.00 2.00,847.00 2.00,847.00
             2.00,847.00 850.00,847.00 850.00,847.00
             850.00,847.00 850.00,1.00 850.00,1.00 Z
           M 347.00,113.00
           C 347.89,109.13 351.40,108.21 354.43,105.96
             354.43,105.96 374.00,91.62 374.00,91.62
             374.00,91.62 393.00,78.37 393.00,78.37
             401.80,73.84 416.14,69.00 426.00,68.28
             440.03,67.24 460.19,72.69 472.00,80.24
             472.00,80.24 499.83,100.27 499.83,100.27
             499.83,100.27 585.57,161.40 585.57,161.40
             585.57,161.40 598.66,171.48 598.66,171.48
             598.66,171.48 633.93,196.08 633.93,196.08
             633.93,196.08 649.00,207.11 649.00,207.11
             649.00,207.11 656.96,212.22 656.96,212.22
             656.96,212.22 686.00,233.57 686.00,233.57
             686.00,233.57 735.28,268.66 735.28,268.66
             735.28,268.66 750.00,278.63 750.00,278.63
             750.00,278.63 768.00,291.97 768.00,291.97
             789.17,306.41 803.16,317.05 810.08,343.00
             812.19,350.93 812.09,357.92 812.00,366.00
             811.88,376.04 808.38,385.57 805.29,395.00
             805.29,395.00 800.38,412.00 800.38,412.00
             800.38,412.00 795.63,425.00 795.63,425.00
             795.63,425.00 787.97,447.00 787.97,447.00
             787.97,447.00 784.04,461.00 784.04,461.00
             784.04,461.00 768.73,505.28 768.73,505.28
             768.73,505.28 766.66,513.72 766.66,513.72
             766.66,513.72 750.83,559.00 750.83,559.00
             750.83,559.00 749.26,566.00 749.26,566.00
             749.26,566.00 744.66,579.00 744.66,579.00
             744.66,579.00 736.73,602.00 736.73,602.00
             735.54,605.40 734.83,609.67 732.00,612.00
             732.76,617.86 729.97,623.50 728.19,629.00
             728.19,629.00 716.00,665.00 716.00,665.00
             716.00,665.00 700.46,712.00 700.46,712.00
             695.95,725.70 692.62,739.86 685.87,752.72
             678.41,766.91 660.13,782.00 644.83,787.05
             636.77,789.71 623.54,790.99 615.00,791.00
             615.00,791.00 239.00,791.00 239.00,791.00
             231.15,790.99 233.08,790.73 226.00,789.04
             226.00,789.04 218.00,787.18 218.00,787.18
             200.70,781.43 184.82,767.98 176.12,752.00
             168.97,738.87 168.82,733.45 164.54,720.00
             164.54,720.00 158.94,704.83 158.94,704.83
             158.94,704.83 150.91,678.17 150.91,678.17
             150.91,678.17 138.82,644.00 138.82,644.00
             138.82,644.00 127.25,607.00 127.25,607.00
             127.25,607.00 119.00,583.92 119.00,583.92
             119.00,583.92 113.62,565.17 113.62,565.17
             113.62,565.17 102.20,533.04 102.20,533.04
             102.20,533.04 100.77,526.83 100.77,526.83
             100.77,526.83 97.04,515.00 97.04,515.00
             97.04,515.00 91.96,501.00 91.96,501.00
             91.96,501.00 83.48,474.00 83.48,474.00
             83.48,474.00 67.80,426.72 67.80,426.72
             67.80,426.72 57.21,395.00 57.21,395.00
             54.38,387.04 51.10,379.54 50.75,371.00
             50.75,371.00 50.75,362.00 50.75,362.00
             51.13,354.75 50.19,353.27 51.68,345.00
             53.24,336.28 62.28,319.56 68.13,313.00
             76.81,303.26 101.37,286.97 113.00,278.58
             113.00,278.58 244.00,185.03 244.00,185.03
             244.00,185.03 252.56,178.33 252.56,178.33
             252.56,178.33 268.83,167.02 268.83,167.02
             268.83,167.02 303.04,142.28 303.04,142.28
             303.04,142.28 318.00,131.91 318.00,131.91
             318.00,131.91 332.91,121.34 332.91,121.34
             338.06,117.47 340.33,114.40 347.00,113.00 Z
           M 730.00,583.00
           C 728.99,574.85 732.26,570.31 734.88,563.13
             734.88,563.13 744.57,534.00 744.57,534.00
             744.57,534.00 749.28,518.00 749.28,518.00
             749.28,518.00 761.05,484.83 761.05,484.83
             761.05,484.83 765.34,470.00 765.34,470.00
             765.34,470.00 781.92,420.17 781.92,420.17
             781.92,420.17 791.96,390.09 791.96,390.09
             794.51,382.84 797.89,374.75 798.00,367.00
             798.16,354.68 798.21,347.55 792.61,336.04
             785.85,322.13 778.57,317.69 767.00,308.91
             767.00,308.91 748.42,295.80 748.42,295.80
             748.42,295.80 727.17,280.38 727.17,280.38
             727.17,280.38 687.00,251.43 687.00,251.43
             687.00,251.43 678.42,245.82 678.42,245.82
             678.42,245.82 619.00,202.77 619.00,202.77
             619.00,202.77 606.00,194.09 606.00,194.09
             606.00,194.09 521.00,132.98 521.00,132.98
             521.00,132.98 499.00,116.76 499.00,116.76
             499.00,116.76 488.00,109.54 488.00,109.54
             476.99,101.01 461.40,88.99 448.09,85.09
             438.96,82.41 435.32,82.94 426.00,83.00
             422.82,83.02 421.20,82.54 419.00,85.00
             410.53,83.52 400.66,90.72 393.83,95.15
             393.83,95.15 372.00,111.06 372.00,111.06
             372.00,111.06 364.17,115.95 364.17,115.95
             364.17,115.95 345.04,130.06 345.04,130.06
             339.79,133.66 331.00,141.61 325.00,142.00
             323.77,146.03 319.30,148.22 316.00,150.58
             316.00,150.58 302.28,160.85 302.28,160.85
             302.28,160.85 293.17,166.72 293.17,166.72
             293.17,166.72 218.72,220.38 218.72,220.38
             218.72,220.38 199.91,233.86 199.91,233.86
             195.68,236.78 190.58,239.44 188.00,244.00
             182.79,244.64 169.32,256.19 164.08,259.74
             164.08,259.74 109.96,298.38 109.96,298.38
             104.08,302.58 92.29,312.29 86.00,314.00
             86.00,314.00 74.48,328.41 74.48,328.41
             67.82,338.62 67.42,343.52 65.79,355.00
             65.79,355.00 64.56,361.00 64.56,361.00
             64.38,363.54 65.27,365.55 65.68,368.00
             65.68,368.00 66.46,375.00 66.46,375.00
             66.46,375.00 72.00,394.00 72.00,394.00
             72.00,394.00 83.54,428.00 83.54,428.00
             83.54,428.00 94.38,463.00 94.38,463.00
             97.30,471.29 105.50,490.22 105.00,498.00
             105.00,498.00 111.43,514.00 111.43,514.00
             111.43,514.00 124.52,554.00 124.52,554.00
             124.52,554.00 132.00,580.00 132.00,580.00
             135.10,583.58 135.80,586.33 136.00,591.00
             138.58,593.55 139.40,598.52 140.38,602.00
             140.38,602.00 145.63,618.00 145.63,618.00
             145.63,618.00 164.79,676.00 164.79,676.00
             167.50,683.76 173.78,698.10 173.00,706.00
             176.95,710.50 176.17,711.98 178.00,717.00
             180.01,722.48 184.34,731.27 184.00,737.00
             188.13,741.29 187.18,742.95 190.38,748.00
             194.66,754.75 202.13,762.87 209.01,766.96
             227.33,777.85 242.77,776.00 263.00,776.00
             263.00,776.00 341.00,776.00 341.00,776.00
             341.00,776.00 619.00,776.00 619.00,776.00
             637.90,775.97 654.25,769.60 666.70,755.00
             672.33,748.40 674.04,741.12 679.00,737.00
             677.69,733.56 679.36,730.36 680.40,726.99
             680.40,726.99 687.57,706.00 687.57,706.00
             687.57,706.00 706.92,648.00 706.92,648.00
             706.92,648.00 716.84,617.00 716.84,617.00
             716.84,617.00 725.35,592.00 725.35,592.00
             726.33,589.13 727.03,584.14 730.00,583.00 Z
           M 385.00,92.00
           C 385.00,92.00 384.00,92.00 384.00,92.00
             384.00,92.00 385.00,93.00 385.00,93.00
             385.00,93.00 385.00,92.00 385.00,92.00 Z
           M 378.00,101.00
           C 378.00,101.00 377.00,101.00 377.00,101.00
             377.00,101.00 378.00,102.00 378.00,102.00
             378.00,102.00 378.00,101.00 378.00,101.00 Z
           M 377.00,105.00
           C 377.00,105.00 376.00,105.00 376.00,105.00
             376.00,105.00 377.00,106.00 377.00,106.00
             377.00,106.00 377.00,105.00 377.00,105.00 Z
           M 361.00,115.00
           C 361.00,115.00 360.00,115.00 360.00,115.00
             360.00,115.00 361.00,116.00 361.00,116.00
             361.00,116.00 361.00,115.00 361.00,115.00 Z
           M 509.00,121.00
           C 509.00,121.00 508.00,121.00 508.00,121.00
             508.00,121.00 509.00,122.00 509.00,122.00
             509.00,122.00 509.00,121.00 509.00,121.00 Z
           M 523.00,128.00
           C 523.00,128.00 522.00,128.00 522.00,128.00
             522.00,128.00 523.00,129.00 523.00,129.00
             523.00,129.00 523.00,128.00 523.00,128.00 Z
           M 539.00,128.00
           C 539.00,128.00 538.00,128.00 538.00,128.00
             538.00,128.00 539.00,129.00 539.00,129.00
             539.00,129.00 539.00,128.00 539.00,128.00 Z
           M 328.00,138.00
           C 328.00,138.00 327.00,138.00 327.00,138.00
             327.00,138.00 328.00,139.00 328.00,139.00
             328.00,139.00 328.00,138.00 328.00,138.00 Z
           M 325.00,139.00
           C 325.00,139.00 324.00,139.00 324.00,139.00
             324.00,139.00 325.00,140.00 325.00,140.00
             325.00,140.00 325.00,139.00 325.00,139.00 Z
           M 542.00,145.00
           C 542.00,145.00 541.00,145.00 541.00,145.00
             541.00,145.00 542.00,146.00 542.00,146.00
             542.00,146.00 542.00,145.00 542.00,145.00 Z
           M 304.00,151.00
           C 304.00,151.00 303.00,151.00 303.00,151.00
             303.00,151.00 304.00,152.00 304.00,152.00
             304.00,152.00 304.00,151.00 304.00,151.00 Z
           M 301.00,155.00
           C 301.00,155.00 300.00,155.00 300.00,155.00
             300.00,155.00 301.00,156.00 301.00,156.00
             301.00,156.00 301.00,155.00 301.00,155.00 Z
           M 291.00,166.00
           C 291.00,166.00 290.00,166.00 290.00,166.00
             290.00,166.00 291.00,167.00 291.00,167.00
             291.00,167.00 291.00,166.00 291.00,166.00 Z
           M 593.00,168.00
           C 593.00,168.00 592.00,168.00 592.00,168.00
             592.00,168.00 593.00,169.00 593.00,169.00
             593.00,169.00 593.00,168.00 593.00,168.00 Z
           M 589.00,175.00
           C 589.00,175.00 588.00,175.00 588.00,175.00
             588.00,175.00 589.00,176.00 589.00,176.00
             589.00,176.00 589.00,175.00 589.00,175.00 Z
           M 612.00,182.00
           C 612.00,182.00 611.00,182.00 611.00,182.00
             611.00,182.00 612.00,183.00 612.00,183.00
             612.00,183.00 612.00,182.00 612.00,182.00 Z
           M 260.00,184.00
           C 260.00,184.00 259.00,184.00 259.00,184.00
             259.00,184.00 260.00,185.00 260.00,185.00
             260.00,185.00 260.00,184.00 260.00,184.00 Z
           M 603.00,184.00
           C 603.00,184.00 602.00,184.00 602.00,184.00
             602.00,184.00 603.00,185.00 603.00,185.00
             603.00,185.00 603.00,184.00 603.00,184.00 Z
           M 599.00,186.00
           C 599.00,186.00 598.00,186.00 598.00,186.00
             598.00,186.00 599.00,187.00 599.00,187.00
             599.00,187.00 599.00,186.00 599.00,186.00 Z
           M 166.00,363.00
           C 166.00,363.00 188.90,325.00 188.90,325.00
             188.90,325.00 205.12,297.00 205.12,297.00
             205.12,297.00 214.13,282.83 214.13,282.83
             214.13,282.83 220.17,271.00 220.17,271.00
             220.17,271.00 231.56,253.00 231.56,253.00
             231.56,253.00 240.11,237.99 240.11,237.99
             240.11,237.99 256.51,211.46 256.51,211.46
             259.44,207.91 262.10,206.22 265.72,203.59
             276.11,196.01 284.96,192.02 298.00,192.00
             298.00,192.00 564.00,192.00 564.00,192.00
             579.43,192.02 595.10,200.07 605.41,211.46
             605.41,211.46 624.96,243.00 624.96,243.00
             624.96,243.00 637.76,265.00 637.76,265.00
             638.21,266.81 637.99,267.24 637.76,269.00
             641.92,269.90 643.20,273.66 644.92,277.01
             648.32,283.65 658.80,297.84 659.00,304.00
             663.49,306.82 665.69,312.53 668.29,317.00
             668.29,317.00 683.65,343.00 683.65,343.00
             683.65,343.00 741.39,441.00 741.39,441.00
             747.11,450.54 750.33,462.80 749.92,473.91
             749.78,477.75 749.01,482.44 746.00,485.00
             747.22,492.91 740.66,500.43 737.09,507.01
             737.09,507.01 719.25,537.00 719.25,537.00
             719.25,537.00 708.38,556.28 708.38,556.28
             705.16,561.54 700.10,572.14 695.00,575.00
             695.00,575.00 696.00,578.00 696.00,578.00
             690.67,583.96 688.20,594.25 681.00,598.00
             682.82,602.89 676.86,607.89 676.00,613.00
             669.47,619.81 660.76,637.62 655.43,646.58
             655.43,646.58 647.56,659.00 647.56,659.00
             647.56,659.00 617.72,709.96 617.72,709.96
             617.72,709.96 605.39,729.58 605.39,729.58
             596.30,740.24 578.18,749.98 564.00,750.00
             564.00,750.00 299.00,750.00 299.00,750.00
             284.28,749.97 266.03,740.59 256.43,729.54
             252.38,724.88 247.58,715.62 244.13,710.00
             244.13,710.00 237.66,699.91 237.66,699.91
             237.66,699.91 227.41,681.28 227.41,681.28
             227.41,681.28 206.06,645.72 206.06,645.72
             206.06,645.72 191.93,621.00 191.93,621.00
             191.93,621.00 183.40,606.00 183.40,606.00
             183.40,606.00 159.86,566.00 159.86,566.00
             155.44,558.44 145.52,544.01 144.00,536.00
             144.00,536.00 142.00,537.00 142.00,537.00
             142.00,537.00 118.72,496.00 118.72,496.00
             114.47,486.35 113.98,479.30 114.00,469.00
             114.03,450.14 120.08,442.38 129.39,427.00
             129.39,427.00 139.22,410.00 139.22,410.00
             143.09,403.49 150.67,392.97 152.00,386.00
             152.00,386.00 156.00,385.00 156.00,385.00
             155.67,376.53 165.16,371.24 166.00,363.00 Z
           M 610.00,195.00
           C 610.00,195.00 609.00,195.00 609.00,195.00
             609.00,195.00 610.00,196.00 610.00,196.00
             610.00,196.00 610.00,195.00 610.00,195.00 Z
           M 677.00,359.00
           C 673.14,355.37 669.07,346.05 666.41,341.00
             666.41,341.00 653.90,321.25 653.90,321.25
             644.07,306.32 631.58,293.55 619.00,281.00
             619.00,281.00 609.72,271.59 609.72,271.59
             584.81,249.77 557.67,234.74 527.00,222.83
             527.00,222.83 514.00,217.75 514.00,217.75
             514.00,217.75 478.00,209.76 478.00,209.76
             478.00,209.76 472.00,208.25 472.00,208.25
             455.99,205.45 434.49,205.97 418.00,206.00
             405.18,206.02 388.64,208.22 376.09,210.95
             376.09,210.95 369.91,212.74 369.91,212.74
             369.91,212.74 363.00,213.48 363.00,213.48
             363.00,213.48 353.00,216.15 353.00,216.15
             342.67,219.10 317.86,229.45 308.00,234.35
             289.21,243.68 268.10,257.80 252.28,271.59
             252.28,271.59 229.92,293.67 229.92,293.67
             225.04,298.39 216.81,309.54 212.39,315.42
             210.50,317.94 207.79,323.09 205.00,324.00
             203.07,333.23 186.36,351.61 187.00,362.00
             182.67,365.20 181.54,371.25 179.33,375.96
             173.43,388.53 169.66,408.13 166.78,422.00
             166.78,422.00 165.24,428.00 165.24,428.00
             165.24,428.00 163.82,442.00 163.82,442.00
             163.82,442.00 162.07,451.00 162.07,451.00
             162.07,451.00 162.07,461.00 162.07,461.00
             162.07,461.00 162.92,474.00 162.92,474.00
             162.92,478.37 161.60,480.80 162.09,488.00
             162.09,488.00 163.71,499.00 163.71,499.00
             163.71,499.00 165.24,513.00 165.24,513.00
             170.20,539.41 175.72,557.51 186.85,582.00
             194.22,598.22 196.79,601.49 205.89,616.00
             209.28,621.40 212.13,627.97 218.00,631.00
             218.00,631.00 217.00,635.00 217.00,635.00
             217.00,635.00 220.00,634.00 220.00,634.00
             223.07,640.62 234.75,652.15 240.28,657.83
             243.70,661.34 248.71,664.11 250.00,669.00
             254.73,670.85 270.43,683.64 276.01,687.70
             285.27,694.45 303.46,704.60 314.00,709.88
             336.16,720.98 372.26,731.46 397.00,733.83
             397.00,733.83 447.00,735.00 447.00,735.00
             447.00,735.00 459.00,734.09 459.00,734.09
             483.44,732.38 500.09,728.11 523.00,719.66
             523.00,719.66 547.00,710.39 547.00,710.39
             567.03,701.01 593.82,683.74 609.99,668.83
             609.99,668.83 625.42,653.28 625.42,653.28
             625.42,653.28 636.25,642.72 636.25,642.72
             657.99,617.77 676.22,585.30 686.92,554.00
             692.98,536.27 696.16,517.53 698.17,499.00
             698.94,491.93 699.98,493.96 700.00,484.00
             700.00,484.00 700.00,454.00 700.00,454.00
             699.92,447.59 699.17,448.21 698.32,443.00
             698.32,443.00 697.72,435.00 697.72,435.00
             697.72,435.00 695.22,422.00 695.22,422.00
             692.17,407.30 691.01,397.59 685.42,383.00
             682.92,376.47 679.48,366.06 675.00,361.00
             675.00,361.00 677.00,359.00 677.00,359.00 Z
           M 596.00,206.00
           C 596.00,206.00 595.00,206.00 595.00,206.00
             595.00,206.00 596.00,207.00 596.00,207.00
             596.00,207.00 596.00,206.00 596.00,206.00 Z
           M 602.00,209.00
           C 602.00,209.00 601.00,209.00 601.00,209.00
             601.00,209.00 602.00,210.00 602.00,210.00
             602.00,210.00 602.00,209.00 602.00,209.00 Z
           M 636.00,209.00
           C 636.00,209.00 635.00,209.00 635.00,209.00
             635.00,209.00 636.00,210.00 636.00,210.00
             636.00,210.00 636.00,209.00 636.00,209.00 Z
           M 653.00,212.00
           C 653.00,212.00 652.00,212.00 652.00,212.00
             652.00,212.00 653.00,213.00 653.00,213.00
             653.00,213.00 653.00,212.00 653.00,212.00 Z
           M 599.00,215.00
           C 599.00,215.00 598.00,215.00 598.00,215.00
             598.00,215.00 599.00,216.00 599.00,216.00
             599.00,216.00 599.00,215.00 599.00,215.00 Z
           M 657.00,215.00
           C 657.00,215.00 656.00,215.00 656.00,215.00
             656.00,215.00 657.00,216.00 657.00,216.00
             657.00,216.00 657.00,215.00 657.00,215.00 Z
           M 212.00,219.00
           C 212.00,219.00 211.00,219.00 211.00,219.00
             211.00,219.00 212.00,220.00 212.00,220.00
             212.00,220.00 212.00,219.00 212.00,219.00 Z
           M 414.00,221.00
           C 414.00,221.00 420.51,222.02 420.51,222.02
             420.51,222.02 425.24,231.17 425.24,231.17
             425.24,231.17 432.00,249.00 432.00,249.00
             425.96,247.32 427.35,245.87 423.87,244.58
             418.14,242.45 411.88,243.82 410.00,250.00
             410.00,250.00 406.00,250.00 406.00,250.00
             406.00,250.00 414.00,221.00 414.00,221.00 Z
           M 609.00,225.00
           C 609.00,225.00 608.00,225.00 608.00,225.00
             608.00,225.00 609.00,226.00 609.00,226.00
             609.00,226.00 609.00,225.00 609.00,225.00 Z
           M 378.00,225.00
           C 380.93,229.32 385.75,248.47 386.00,254.00
             381.19,252.32 380.59,247.66 380.00,243.00
             380.00,243.00 363.00,246.00 363.00,246.00
             363.00,246.00 367.00,259.00 367.00,259.00
             367.00,259.00 363.00,260.00 363.00,260.00
             363.00,260.00 361.00,246.00 361.00,246.00
             357.56,243.08 356.26,235.41 356.00,231.00
             361.73,232.83 361.56,236.60 362.00,242.00
             366.27,241.91 374.57,241.57 376.36,236.81
             377.32,234.26 375.70,228.66 375.00,226.00
             375.00,226.00 378.00,225.00 378.00,225.00 Z
           M 416.00,226.00
           C 415.44,232.64 414.75,231.46 413.77,236.00
             412.13,243.58 419.45,241.84 421.40,240.07
             424.48,237.27 421.03,229.52 419.17,227.59
             417.99,226.38 417.40,226.48 416.00,226.00 Z
           M 492.00,227.00
           C 492.00,227.00 496.00,228.00 496.00,228.00
             496.00,228.00 492.41,241.96 492.41,241.96
             491.65,245.70 491.82,249.55 489.08,252.57
             485.42,256.60 473.92,256.35 473.00,245.00
             473.00,245.00 478.00,247.00 478.00,247.00
             479.74,252.44 483.87,253.10 486.69,247.94
             486.69,247.94 492.00,227.00 492.00,227.00 Z
           M 546.00,229.00
           C 546.00,229.00 545.00,229.00 545.00,229.00
             545.00,229.00 546.00,230.00 546.00,230.00
             546.00,230.00 546.00,229.00 546.00,229.00 Z
           M 247.00,231.00
           C 247.00,231.00 246.00,231.00 246.00,231.00
             246.00,231.00 247.00,232.00 247.00,232.00
             247.00,232.00 247.00,231.00 247.00,231.00 Z
           M 180.00,233.00
           C 180.00,233.00 179.00,233.00 179.00,233.00
             179.00,233.00 180.00,234.00 180.00,234.00
             180.00,234.00 180.00,233.00 180.00,233.00 Z
           M 247.00,236.00
           C 247.00,236.00 246.00,236.00 246.00,236.00
             246.00,236.00 247.00,237.00 247.00,237.00
             247.00,237.00 247.00,236.00 247.00,236.00 Z
           M 177.00,239.00
           C 177.00,239.00 176.00,239.00 176.00,239.00
             176.00,239.00 177.00,240.00 177.00,240.00
             177.00,240.00 177.00,239.00 177.00,239.00 Z
           M 183.00,242.00
           C 183.00,242.00 182.00,242.00 182.00,242.00
             182.00,242.00 183.00,243.00 183.00,243.00
             183.00,243.00 183.00,242.00 183.00,242.00 Z
           M 317.00,246.00
           C 321.70,244.18 328.30,240.10 333.00,243.00
             330.56,244.01 325.35,245.64 324.40,248.26
             323.56,250.56 325.56,255.43 328.34,255.46
             330.00,255.48 334.35,252.87 336.00,252.00
             336.00,252.00 338.00,254.00 338.00,254.00
             338.00,254.00 338.00,255.00 338.00,255.00
             338.00,255.00 328.00,258.00 328.00,258.00
             328.00,258.00 331.00,268.00 331.00,268.00
             331.00,268.00 343.00,264.00 343.00,264.00
             343.00,264.00 344.00,267.00 344.00,267.00
             344.00,267.00 330.00,273.00 330.00,273.00
             330.00,273.00 317.00,246.00 317.00,246.00 Z
           M 509.00,264.00
           C 511.40,258.83 520.73,248.67 525.20,244.90
             527.63,242.85 531.39,240.15 534.40,242.87
             536.55,244.81 535.83,248.52 535.34,251.00
             535.34,251.00 533.00,273.00 533.00,273.00
             533.00,273.00 531.00,273.00 531.00,273.00
             527.49,261.23 530.13,269.17 525.00,261.83
             525.00,261.83 517.00,261.83 517.00,261.83
             517.00,261.83 509.00,264.00 509.00,264.00 Z
           M 531.00,247.00
           C 527.85,247.81 526.84,247.72 526.00,251.00
             522.55,251.95 521.38,254.89 520.00,258.00
             520.00,258.00 524.00,260.00 524.00,260.00
             533.05,263.24 531.00,252.41 531.00,247.00 Z
           M 523.00,249.00
           C 523.00,249.00 522.00,249.00 522.00,249.00
             522.00,249.00 523.00,250.00 523.00,250.00
             523.00,250.00 523.00,249.00 523.00,249.00 Z
           M 623.00,249.00
           C 623.00,249.00 622.00,249.00 622.00,249.00
             622.00,249.00 623.00,250.00 623.00,250.00
             623.00,250.00 623.00,249.00 623.00,249.00 Z
           M 707.00,249.00
           C 707.00,249.00 706.00,249.00 706.00,249.00
             706.00,249.00 707.00,250.00 707.00,250.00
             707.00,250.00 707.00,249.00 707.00,249.00 Z
           M 166.00,255.00
           C 166.00,255.00 165.00,255.00 165.00,255.00
             165.00,255.00 166.00,256.00 166.00,256.00
             166.00,256.00 166.00,255.00 166.00,255.00 Z
           M 163.00,256.00
           C 163.00,256.00 162.00,256.00 162.00,256.00
             162.00,256.00 163.00,257.00 163.00,257.00
             163.00,257.00 163.00,256.00 163.00,256.00 Z
           M 268.00,256.00
           C 268.00,256.00 267.00,256.00 267.00,256.00
             267.00,256.00 268.00,257.00 268.00,257.00
             268.00,257.00 268.00,256.00 268.00,256.00 Z
           M 564.00,259.00
           C 571.14,259.47 577.49,265.71 583.00,270.00
             578.74,270.31 578.01,269.74 576.00,266.00
             576.00,266.00 558.00,289.00 558.00,289.00
             558.00,289.00 557.13,285.00 557.13,285.00
             557.13,285.00 570.00,264.00 570.00,264.00
             570.00,264.00 564.00,259.00 564.00,259.00 Z
           M 723.00,260.00
           C 723.00,260.00 722.00,260.00 722.00,260.00
             722.00,260.00 723.00,261.00 723.00,261.00
             723.00,261.00 723.00,260.00 723.00,260.00 Z
           M 286.00,264.00
           C 286.00,264.00 289.45,264.99 289.45,264.99
             289.45,264.99 299.04,277.71 299.04,277.71
             299.04,277.71 304.14,282.97 304.14,282.97
             304.14,282.97 313.00,280.00 313.00,280.00
             310.69,284.42 306.11,287.30 302.00,290.00
             297.23,282.91 287.95,271.95 286.00,264.00 Z
           M 250.00,576.00
           C 249.27,571.08 242.65,562.48 240.14,557.00
             235.41,546.63 229.92,529.19 226.72,518.00
             226.72,518.00 223.81,501.00 223.81,501.00
             223.81,501.00 222.21,494.00 222.21,494.00
             222.21,494.00 221.00,476.00 221.00,476.00
             221.00,476.00 222.18,447.00 222.18,447.00
             224.53,427.09 233.25,397.76 242.36,380.00
             260.29,345.01 285.62,316.11 319.17,295.28
             319.17,295.28 334.00,287.41 334.00,287.41
             334.00,287.41 351.99,278.76 351.99,278.76
             351.99,278.76 367.00,274.04 367.00,274.04
             367.00,274.04 383.00,269.17 383.00,269.17
             405.32,263.88 418.56,263.97 441.00,264.00
             451.06,264.02 470.31,266.76 480.00,269.42
             480.00,269.42 486.58,271.72 486.58,271.72
             506.09,277.23 510.68,278.41 529.00,288.06
             529.00,288.06 548.00,298.89 548.00,298.89
             548.00,298.89 555.25,304.37 555.25,304.37
             576.67,319.07 594.63,338.48 608.51,360.44
             620.97,380.15 630.14,402.58 635.85,425.17
             635.85,425.17 638.24,441.00 638.24,441.00
             638.24,441.00 639.87,448.00 639.87,448.00
             639.87,448.00 641.00,475.00 641.00,475.00
             641.00,475.00 639.79,494.00 639.79,494.00
             639.79,494.00 638.19,501.00 638.19,501.00
             638.19,501.00 635.85,515.83 635.85,515.83
             632.31,529.83 625.50,549.16 619.03,562.00
             619.03,562.00 609.30,579.00 609.30,579.00
             599.82,595.47 579.98,617.93 564.99,629.47
             553.38,638.41 550.15,643.19 543.09,635.13
             541.45,633.26 541.51,633.27 541.00,631.00
             534.90,630.82 532.72,626.60 528.08,623.00
             528.08,623.00 502.70,601.15 502.70,601.15
             499.47,598.37 493.74,594.77 491.77,591.00
             489.87,587.36 492.14,584.00 494.31,581.09
             497.38,576.97 509.04,565.90 514.00,564.86
             517.54,564.12 520.14,565.91 524.00,565.90
             528.41,565.88 530.75,563.62 535.91,564.12
             539.11,564.43 540.95,566.06 544.01,565.80
             548.64,565.40 555.17,558.70 555.22,554.00
             555.31,545.85 539.95,536.73 539.77,530.00
             539.67,526.39 542.55,523.76 543.52,518.99
             545.41,509.69 539.63,502.42 532.00,498.00
             532.11,503.36 534.17,506.60 533.66,511.00
             532.25,523.16 514.09,529.62 505.43,520.59
             501.20,516.17 502.55,507.64 502.00,502.00
             491.03,507.71 492.14,519.28 496.00,529.00
             496.00,529.00 492.00,532.00 492.00,532.00
             482.90,534.34 474.82,543.16 472.00,552.00
             465.54,548.31 464.01,541.16 449.00,539.00
             451.40,543.55 454.86,545.09 459.00,548.00
             457.27,552.81 448.71,561.72 444.87,565.65
             444.87,565.65 412.30,597.11 412.30,597.11
             407.22,601.70 401.23,610.26 394.00,610.00
             393.92,611.62 394.22,612.15 393.23,613.74
             391.79,616.05 381.69,623.07 379.00,625.01
             366.71,633.87 350.38,640.82 335.00,641.00
             335.00,641.00 325.00,641.00 325.00,641.00
             325.00,641.00 315.00,642.00 315.00,642.00
             315.00,642.00 317.00,637.00 317.00,637.00
             317.00,637.00 314.00,641.00 314.00,641.00
             307.99,638.53 303.10,634.18 298.00,630.23
             282.65,618.33 273.11,607.21 261.42,592.00
             261.42,592.00 250.00,576.00 250.00,576.00 Z
           M 636.00,265.00
           C 636.00,265.00 635.00,265.00 635.00,265.00
             635.00,265.00 636.00,266.00 636.00,266.00
             636.00,266.00 636.00,265.00 636.00,265.00 Z
           M 447.00,450.00
           C 447.00,450.00 446.00,421.00 446.00,421.00
             445.95,410.88 444.02,414.36 444.00,403.00
             444.00,403.00 443.00,349.00 443.00,349.00
             443.00,349.00 442.00,334.00 442.00,334.00
             442.00,334.00 442.00,315.00 442.00,315.00
             442.00,315.00 440.00,296.00 440.00,296.00
             440.00,296.00 440.00,288.00 440.00,288.00
             439.99,280.90 439.67,278.13 435.56,272.02
             434.13,269.90 432.20,267.02 429.31,268.74
             427.99,269.53 426.63,271.70 425.83,273.00
             420.59,281.46 422.11,286.56 422.00,296.00
             422.00,296.00 420.00,315.00 420.00,315.00
             420.00,315.00 420.00,332.00 420.00,332.00
             420.00,332.00 419.00,348.00 419.00,348.00
             419.00,348.00 418.00,402.00 418.00,402.00
             417.98,412.92 416.11,411.31 416.01,420.00
             416.01,420.00 416.01,433.00 416.01,433.00
             416.01,433.00 414.95,440.00 414.95,440.00
             414.95,440.00 414.95,450.00 414.95,450.00
             414.95,450.00 447.00,450.00 447.00,450.00 Z
           M 227.00,269.00
           C 227.00,269.00 226.00,269.00 226.00,269.00
             226.00,269.00 227.00,270.00 227.00,270.00
             227.00,270.00 227.00,269.00 227.00,269.00 Z
           M 139.00,276.00
           C 139.00,276.00 138.00,276.00 138.00,276.00
             138.00,276.00 139.00,277.00 139.00,277.00
             139.00,277.00 139.00,276.00 139.00,276.00 Z
           M 442.00,276.00
           C 442.00,276.00 441.00,276.00 441.00,276.00
             441.00,276.00 442.00,277.00 442.00,277.00
             442.00,277.00 442.00,276.00 442.00,276.00 Z
           M 297.00,279.00
           C 297.00,279.00 296.00,279.00 296.00,279.00
             296.00,279.00 297.00,280.00 297.00,280.00
             297.00,280.00 297.00,279.00 297.00,279.00 Z
           M 354.00,279.00
           C 354.00,279.00 353.00,279.00 353.00,279.00
             353.00,279.00 354.00,280.00 354.00,280.00
             354.00,280.00 354.00,279.00 354.00,279.00 Z
           M 441.00,279.00
           C 441.00,279.00 440.00,279.00 440.00,279.00
             440.00,279.00 441.00,280.00 441.00,280.00
             441.00,280.00 441.00,279.00 441.00,279.00 Z
           M 265.00,281.00
           C 265.00,281.00 268.00,282.00 268.00,282.00
             268.00,282.00 280.71,298.17 280.71,298.17
             282.71,305.97 275.36,315.53 267.00,313.41
             261.75,312.07 251.25,300.54 248.00,296.00
             249.38,295.42 250.10,294.71 251.83,295.03
             257.13,296.02 263.07,310.76 270.99,309.09
             276.54,307.92 278.72,302.78 275.59,298.00
             275.59,298.00 270.71,292.00 270.71,292.00
             267.42,288.24 265.21,286.67 263.00,282.00
             263.00,282.00 265.00,281.00 265.00,281.00 Z
           M 348.00,282.00
           C 348.00,282.00 347.00,282.00 347.00,282.00
             347.00,282.00 348.00,283.00 348.00,283.00
             348.00,283.00 348.00,282.00 348.00,282.00 Z
           M 562.00,282.00
           C 562.00,282.00 561.00,282.00 561.00,282.00
             561.00,282.00 562.00,283.00 562.00,283.00
             562.00,283.00 562.00,282.00 562.00,282.00 Z
           M 354.00,283.00
           C 354.00,283.00 353.00,283.00 353.00,283.00
             353.00,283.00 354.00,284.00 354.00,284.00
             354.00,284.00 354.00,283.00 354.00,283.00 Z
           M 518.00,283.00
           C 518.00,283.00 517.00,283.00 517.00,283.00
             517.00,283.00 518.00,284.00 518.00,284.00
             518.00,284.00 518.00,283.00 518.00,283.00 Z
           M 512.00,285.00
           C 512.00,285.00 511.00,285.00 511.00,285.00
             511.00,285.00 512.00,286.00 512.00,286.00
             512.00,286.00 512.00,285.00 512.00,285.00 Z
           M 599.00,284.00
           C 599.00,284.00 602.00,288.00 602.00,288.00
             594.75,293.76 590.12,304.32 581.00,307.00
             581.00,307.00 582.01,303.28 582.01,303.28
             582.01,303.28 599.00,284.00 599.00,284.00 Z
           M 114.00,286.00
           C 114.00,286.00 113.00,286.00 113.00,286.00
             113.00,286.00 114.00,287.00 114.00,287.00
             114.00,287.00 114.00,286.00 114.00,286.00 Z
           M 747.00,289.00
           C 747.00,289.00 746.00,289.00 746.00,289.00
             746.00,289.00 747.00,290.00 747.00,290.00
             747.00,290.00 747.00,289.00 747.00,289.00 Z
           M 753.00,292.00
           C 753.00,292.00 752.00,292.00 752.00,292.00
             752.00,292.00 753.00,293.00 753.00,293.00
             753.00,293.00 753.00,292.00 753.00,292.00 Z
           M 750.00,293.00
           C 750.00,293.00 749.00,293.00 749.00,293.00
             749.00,293.00 750.00,294.00 750.00,294.00
             750.00,294.00 750.00,293.00 750.00,293.00 Z
           M 210.00,296.00
           C 210.00,296.00 209.00,296.00 209.00,296.00
             209.00,296.00 210.00,297.00 210.00,297.00
             210.00,297.00 210.00,296.00 210.00,296.00 Z
           M 650.00,296.00
           C 650.00,296.00 649.00,296.00 649.00,296.00
             649.00,296.00 650.00,297.00 650.00,297.00
             650.00,297.00 650.00,296.00 650.00,296.00 Z
           M 653.00,296.00
           C 653.00,296.00 652.00,296.00 652.00,296.00
             652.00,296.00 653.00,297.00 653.00,297.00
             653.00,297.00 653.00,296.00 653.00,296.00 Z
           M 387.00,467.00
           C 391.60,462.46 398.97,464.08 405.00,464.00
             407.15,463.97 410.52,464.11 412.01,462.26
             413.25,460.72 413.00,456.94 413.00,455.00
             413.00,455.00 413.00,311.00 413.00,311.00
             413.00,308.61 413.33,304.40 411.40,302.69
             410.18,301.60 397.21,301.52 395.06,301.85
             391.29,302.44 391.26,304.84 391.00,308.00
             391.00,308.00 388.00,308.00 388.00,308.00
             388.00,308.00 388.00,319.00 388.00,319.00
             388.00,319.00 383.00,321.00 383.00,321.00
             385.21,329.20 388.48,325.70 390.80,329.72
             391.36,331.17 391.02,335.23 390.80,337.00
             390.80,337.00 387.00,336.00 387.00,336.00
             385.81,340.39 385.39,343.94 391.00,344.00
             391.00,344.00 391.00,354.00 391.00,354.00
             391.00,354.00 386.00,354.00 386.00,354.00
             386.00,354.00 386.00,359.00 386.00,359.00
             386.00,359.00 382.00,359.00 382.00,359.00
             382.00,359.00 381.00,365.00 381.00,365.00
             374.33,365.07 375.97,371.19 378.43,372.43
             380.18,373.31 388.56,373.00 391.00,373.00
             391.00,373.00 392.00,381.00 392.00,381.00
             383.20,381.72 384.00,383.73 384.00,393.00
             378.94,393.42 378.42,393.94 378.00,399.00
             373.48,399.79 373.37,400.56 373.00,405.00
             371.31,405.06 369.00,404.91 367.60,406.02
             365.35,407.80 365.35,416.20 367.60,417.98
             369.40,419.40 375.59,419.00 378.00,419.00
             378.00,419.00 378.00,429.00 378.00,429.00
             384.02,429.21 385.49,429.73 386.00,436.00
             386.00,436.00 390.00,436.00 390.00,436.00
             390.00,439.26 390.69,447.11 388.40,449.40
             385.86,451.94 380.88,450.34 378.43,451.57
             375.33,453.13 376.00,459.03 376.00,462.00
             376.00,462.00 371.00,462.00 371.00,462.00
             370.28,466.31 369.31,467.28 365.00,468.00
             364.96,477.51 363.51,478.67 354.00,477.00
             354.00,477.00 353.00,482.00 353.00,482.00
             344.34,482.43 345.80,484.93 339.00,489.00
             339.00,489.00 340.00,493.00 340.00,493.00
             343.05,492.21 345.81,491.17 349.00,491.05
             353.34,490.88 355.02,491.78 359.00,492.93
             372.68,496.86 374.67,499.15 386.00,507.53
             386.00,507.53 411.17,527.63 411.17,527.63
             411.17,527.63 417.57,532.39 417.57,532.39
             417.57,532.39 425.00,540.00 425.00,540.00
             425.00,540.00 408.00,555.00 408.00,555.00
             408.00,555.00 405.58,550.02 405.58,550.02
             405.58,550.02 413.00,539.00 413.00,539.00
             403.47,539.81 396.96,544.80 391.00,552.00
             388.18,543.85 381.53,535.43 373.00,533.00
             373.00,524.60 373.67,520.83 368.89,513.29
             361.80,502.12 343.06,497.84 332.30,505.66
             326.34,509.99 320.16,523.73 330.00,527.00
             330.65,524.36 330.92,523.38 332.40,521.01
             339.61,509.47 348.00,512.98 358.00,518.00
             358.00,518.00 356.00,521.00 356.00,521.00
             356.00,521.00 359.00,520.00 359.00,520.00
             359.00,520.00 361.57,527.00 361.57,527.00
             362.93,533.58 358.47,539.97 353.00,543.00
             358.33,536.00 360.66,526.83 351.95,521.15
             345.82,517.15 337.05,520.26 337.00,527.84
             338.64,527.66 340.19,527.13 341.89,527.84
             347.33,529.48 345.40,537.59 338.00,536.52
             331.44,535.56 332.41,530.48 326.00,528.00
             323.26,533.80 317.96,537.90 314.14,543.00
             310.00,548.51 308.63,559.08 317.00,561.43
             320.40,562.38 328.81,560.74 333.00,560.59
             340.07,560.34 348.36,563.67 353.00,569.00
             353.00,569.00 359.00,571.00 359.00,571.00
             359.00,571.00 357.00,573.00 357.00,573.00
             364.92,575.44 368.43,584.29 372.00,591.00
             372.00,591.00 359.00,601.82 359.00,601.82
             359.00,601.82 348.00,613.00 348.00,613.00
             348.00,613.00 346.00,612.00 346.00,612.00
             341.08,617.79 334.00,623.15 327.96,627.89
             323.41,631.47 319.72,633.26 318.00,639.00
             324.11,637.22 330.55,632.45 336.00,628.92
             346.61,622.06 357.12,614.10 366.83,606.00
             366.83,606.00 374.43,599.04 374.43,599.04
             380.25,594.18 389.78,587.74 393.00,581.00
             393.00,581.00 395.00,582.00 395.00,582.00
             402.42,571.79 415.53,561.35 424.83,552.28
             440.67,536.85 456.77,521.46 475.00,508.83
             475.00,508.83 493.07,496.84 493.07,496.84
             496.70,495.36 507.61,491.38 511.00,491.21
             516.57,490.94 518.68,493.42 525.00,492.00
             525.00,492.00 525.00,490.00 525.00,490.00
             525.00,490.00 517.00,483.00 517.00,483.00
             517.00,483.00 509.00,482.00 509.00,482.00
             509.00,482.00 508.00,477.00 508.00,477.00
             498.41,478.71 497.04,477.78 497.00,468.00
             492.41,467.23 491.77,466.59 491.00,462.00
             491.00,462.00 486.00,462.00 486.00,462.00
             485.99,449.74 483.52,450.17 472.00,451.00
             472.00,451.00 472.00,436.00 472.00,436.00
             472.00,436.00 476.00,436.00 476.00,436.00
             476.00,436.00 476.00,429.00 476.00,429.00
             476.00,429.00 484.00,429.00 484.00,429.00
             484.00,429.00 484.00,419.00 484.00,419.00
             486.41,419.00 492.60,419.40 494.40,417.98
             496.65,416.20 496.65,407.80 494.40,406.02
             493.00,404.91 490.69,405.06 489.00,405.00
             488.63,400.56 488.52,399.79 484.00,399.00
             483.55,393.31 482.19,393.59 477.00,392.00
             477.00,392.00 478.00,383.00 478.00,383.00
             471.40,380.60 470.24,380.42 470.00,373.00
             472.79,373.00 482.40,373.54 484.26,372.01
             488.16,368.79 483.52,365.54 481.50,363.47
             478.83,360.74 480.06,360.40 476.00,359.00
             476.00,359.00 476.00,354.00 476.00,354.00
             476.00,354.00 470.00,353.00 470.00,353.00
             470.00,353.00 470.00,345.00 470.00,345.00
             470.00,345.00 476.00,344.00 476.00,344.00
             476.00,344.00 475.00,336.00 475.00,336.00
             475.00,336.00 470.00,336.00 470.00,336.00
             471.61,330.16 469.76,328.13 477.00,327.00
             476.89,318.11 475.45,320.96 474.29,315.91
             473.34,311.77 472.77,304.79 468.52,302.26
             468.52,302.26 450.00,301.00 450.00,301.00
             448.10,307.68 449.00,333.37 449.00,342.00
             449.00,342.00 449.00,427.00 449.00,427.00
             449.00,427.00 449.00,452.00 449.00,452.00
             449.00,454.41 448.60,460.60 450.02,462.40
             451.59,464.38 455.70,464.00 458.00,464.00
             458.00,464.00 474.00,464.00 474.00,464.00
             474.00,464.00 474.00,471.00 474.00,471.00
             473.64,469.48 473.46,467.79 472.32,466.60
             469.86,464.05 457.81,465.00 454.00,465.00
             454.00,465.00 411.00,465.00 411.00,465.00
             403.05,465.00 394.45,463.85 387.00,467.00 Z
           M 598.00,322.00
           C 603.75,316.62 615.52,306.57 623.00,305.00
             624.71,316.14 615.63,318.03 613.00,331.00
             613.00,331.00 637.96,326.64 637.96,326.64
             637.96,326.64 642.00,330.00 642.00,330.00
             642.00,330.00 617.00,347.00 617.00,347.00
             617.00,347.00 616.00,343.00 616.00,343.00
             616.00,343.00 631.00,333.00 631.00,333.00
             625.13,327.02 618.36,336.98 607.00,334.00
             607.00,334.00 618.00,314.00 618.00,314.00
             609.43,314.87 604.21,327.29 598.00,322.00 Z
           M 93.00,309.00
           C 93.00,309.00 92.00,309.00 92.00,309.00
             92.00,309.00 93.00,310.00 93.00,310.00
             93.00,310.00 93.00,309.00 93.00,309.00 Z
           M 619.00,309.00
           C 619.00,309.00 618.00,309.00 618.00,309.00
             618.00,309.00 619.00,310.00 619.00,310.00
             619.00,310.00 619.00,309.00 619.00,309.00 Z
           M 210.00,312.00
           C 210.00,312.00 209.00,312.00 209.00,312.00
             209.00,312.00 210.00,313.00 210.00,313.00
             210.00,313.00 210.00,312.00 210.00,312.00 Z
           M 617.00,312.00
           C 617.00,312.00 616.00,312.00 616.00,312.00
             616.00,312.00 617.00,313.00 617.00,313.00
             617.00,313.00 617.00,312.00 617.00,312.00 Z
           M 650.00,313.00
           C 650.00,313.00 649.00,313.00 649.00,313.00
             649.00,313.00 650.00,314.00 650.00,314.00
             650.00,314.00 650.00,313.00 650.00,313.00 Z
           M 792.00,313.00
           C 792.00,313.00 791.00,313.00 791.00,313.00
             791.00,313.00 792.00,314.00 792.00,314.00
             792.00,314.00 792.00,313.00 792.00,313.00 Z
           M 69.00,316.00
           C 69.00,316.00 68.00,316.00 68.00,316.00
             68.00,316.00 69.00,317.00 69.00,317.00
             69.00,317.00 69.00,316.00 69.00,316.00 Z
           M 210.00,316.00
           C 210.00,316.00 209.00,316.00 209.00,316.00
             209.00,316.00 210.00,317.00 210.00,317.00
             210.00,317.00 210.00,316.00 210.00,316.00 Z
           M 297.00,316.00
           C 297.00,316.00 296.00,316.00 296.00,316.00
             296.00,316.00 297.00,317.00 297.00,317.00
             297.00,317.00 297.00,316.00 297.00,316.00 Z
           M 230.00,317.00
           C 234.03,319.03 248.79,328.46 250.68,332.10
             254.02,338.54 248.64,346.93 238.00,344.00
             241.97,340.46 245.36,341.70 246.83,337.94
             247.82,335.43 246.13,333.41 244.37,331.84
             244.37,331.84 229.00,321.00 229.00,321.00
             229.00,321.00 230.00,317.00 230.00,317.00 Z
           M 602.00,322.00
           C 602.00,322.00 601.00,322.00 601.00,322.00
             601.00,322.00 602.00,323.00 602.00,323.00
             602.00,323.00 602.00,322.00 602.00,322.00 Z
           M 190.00,326.00
           C 190.00,326.00 189.00,326.00 189.00,326.00
             189.00,326.00 190.00,327.00 190.00,327.00
             190.00,327.00 190.00,326.00 190.00,326.00 Z
           M 201.00,329.00
           C 201.00,329.00 200.00,329.00 200.00,329.00
             200.00,329.00 201.00,330.00 201.00,330.00
             201.00,330.00 201.00,329.00 201.00,329.00 Z
           M 575.00,329.00
           C 575.00,329.00 574.00,329.00 574.00,329.00
             574.00,329.00 575.00,330.00 575.00,330.00
             575.00,330.00 575.00,329.00 575.00,329.00 Z
           M 660.00,329.00
           C 660.00,329.00 659.00,329.00 659.00,329.00
             659.00,329.00 660.00,330.00 660.00,330.00
             660.00,330.00 660.00,329.00 660.00,329.00 Z
           M 673.00,330.00
           C 673.00,330.00 672.00,330.00 672.00,330.00
             672.00,330.00 673.00,331.00 673.00,331.00
             673.00,331.00 673.00,330.00 673.00,330.00 Z
           M 629.00,336.00
           C 629.00,336.00 628.00,336.00 628.00,336.00
             628.00,336.00 629.00,337.00 629.00,337.00
             629.00,337.00 629.00,336.00 629.00,336.00 Z
           M 187.00,350.00
           C 187.00,350.00 186.00,350.00 186.00,350.00
             186.00,350.00 187.00,351.00 187.00,351.00
             187.00,351.00 187.00,350.00 187.00,350.00 Z
           M 616.00,376.00
           C 616.00,376.00 615.00,376.00 615.00,376.00
             615.00,376.00 616.00,377.00 616.00,377.00
             616.00,377.00 616.00,376.00 616.00,376.00 Z
           M 56.00,379.00
           C 56.00,379.00 55.00,379.00 55.00,379.00
             55.00,379.00 56.00,380.00 56.00,380.00
             56.00,380.00 56.00,379.00 56.00,379.00 Z
           M 157.00,383.00
           C 157.00,383.00 156.00,383.00 156.00,383.00
             156.00,383.00 157.00,384.00 157.00,384.00
             157.00,384.00 157.00,383.00 157.00,383.00 Z
           M 157.00,387.00
           C 157.00,387.00 156.00,387.00 156.00,387.00
             156.00,387.00 157.00,388.00 157.00,388.00
             157.00,388.00 157.00,387.00 157.00,387.00 Z
           M 197.04,389.47
           C 205.00,388.40 211.96,391.56 216.02,398.75
             220.96,407.53 215.59,419.13 205.91,421.59
             183.04,427.41 175.41,395.49 197.04,389.47 Z
           M 657.00,389.53
           C 664.85,388.31 672.43,391.10 676.28,398.43
             681.31,408.02 675.33,419.37 665.00,421.61
             653.18,424.18 643.36,416.24 644.04,404.00
             644.20,401.23 644.62,399.42 646.15,397.04
             648.84,392.82 652.39,390.97 657.00,389.53 Z
           M 676.00,400.00
           C 676.00,400.00 675.00,400.00 675.00,400.00
             675.00,400.00 676.00,401.00 676.00,401.00
             676.00,401.00 676.00,400.00 676.00,400.00 Z
           M 723.00,413.00
           C 723.00,413.00 722.00,413.00 722.00,413.00
             722.00,413.00 723.00,414.00 723.00,414.00
             723.00,414.00 723.00,413.00 723.00,413.00 Z
           M 723.00,417.00
           C 723.00,417.00 722.00,417.00 722.00,417.00
             722.00,417.00 723.00,418.00 723.00,418.00
             723.00,418.00 723.00,417.00 723.00,417.00 Z
           M 83.00,433.00
           C 83.00,433.00 82.00,433.00 82.00,433.00
             82.00,433.00 83.00,434.00 83.00,434.00
             83.00,434.00 83.00,433.00 83.00,433.00 Z
           M 126.00,437.00
           C 126.00,437.00 125.00,437.00 125.00,437.00
             125.00,437.00 126.00,438.00 126.00,438.00
             126.00,438.00 126.00,437.00 126.00,437.00 Z
           M 418.15,453.60
           C 415.24,455.63 413.70,459.37 418.15,460.70
             418.15,460.70 438.00,460.70 438.00,460.70
             439.69,461.00 443.23,461.13 444.68,460.70
             447.67,458.91 446.67,454.90 443.77,453.60
             442.30,452.94 439.63,453.01 438.00,453.00
             432.65,452.96 422.98,452.50 418.15,453.60 Z
           M 775.00,461.00
           C 775.00,461.00 774.00,461.00 774.00,461.00
             774.00,461.00 775.00,462.00 775.00,462.00
             775.00,462.00 775.00,461.00 775.00,461.00 Z
           M 479.00,475.00
           C 479.00,475.00 480.00,475.00 480.00,475.00
             480.00,475.00 479.00,476.00 479.00,476.00
             479.00,476.00 479.00,475.00 479.00,475.00 Z
           M 179.00,478.00
           C 179.00,478.00 184.00,476.00 184.00,476.00
             183.22,477.70 181.56,480.25 181.44,482.02
             181.21,485.66 183.96,486.68 187.00,486.94
             187.00,486.94 205.00,486.00 205.00,486.00
             203.81,487.18 203.62,487.72 201.89,488.41
             198.15,489.88 183.23,489.81 180.60,486.69
             178.80,484.56 179.18,480.71 179.00,478.00 Z
           M 657.21,495.04
           C 657.21,495.04 657.21,485.01 657.21,485.01
             657.86,479.55 662.67,475.76 667.87,478.47
             670.63,479.90 671.52,482.58 674.13,482.76
             674.13,482.76 683.00,480.00 683.00,480.00
             680.43,484.20 675.26,485.81 671.00,488.00
             670.76,486.49 670.77,485.49 669.98,484.06
             663.41,472.23 653.59,491.08 665.02,492.74
             670.63,493.55 679.24,490.38 683.00,496.00
             683.00,496.00 671.00,495.04 671.00,495.04
             671.00,495.04 657.21,495.04 657.21,495.04 Z
           M 376.00,479.00
           C 376.00,479.00 377.00,479.00 377.00,479.00
             377.00,479.00 376.00,480.00 376.00,480.00
             376.00,480.00 376.00,479.00 376.00,479.00 Z
           M 344.00,484.00
           C 344.00,484.00 343.00,484.00 343.00,484.00
             343.00,484.00 344.00,485.00 344.00,485.00
             344.00,485.00 344.00,484.00 344.00,484.00 Z
           M 365.00,484.00
           C 365.00,484.00 377.00,485.00 377.00,485.00
             373.09,485.77 368.53,485.99 365.00,484.00 Z
           M 485.00,484.00
           C 488.68,484.00 493.37,483.07 496.00,486.00
             491.11,485.46 488.93,486.88 485.00,484.00 Z
           M 205.00,497.00
           C 205.00,497.00 205.00,501.00 205.00,501.00
             201.65,500.94 190.03,502.55 187.48,504.30
             184.17,506.58 183.01,511.35 185.74,514.57
             190.03,519.63 202.75,515.91 208.00,514.00
             207.58,515.22 207.65,515.98 206.49,516.92
             203.32,519.53 188.66,520.33 185.25,517.91
             180.77,514.70 181.08,506.12 185.25,502.77
             190.59,498.41 196.80,501.40 205.00,497.00 Z
           M 370.00,498.00
           C 370.00,498.00 369.00,498.00 369.00,498.00
             369.00,498.00 370.00,499.00 370.00,499.00
             370.00,499.00 370.00,498.00 370.00,498.00 Z
           M 365.00,500.00
           C 365.00,500.00 364.00,500.00 364.00,500.00
             364.00,500.00 365.00,501.00 365.00,501.00
             365.00,501.00 365.00,500.00 365.00,500.00 Z
           M 757.00,501.00
           C 757.00,501.00 756.00,501.00 756.00,501.00
             756.00,501.00 757.00,502.00 757.00,502.00
             757.00,502.00 757.00,501.00 757.00,501.00 Z
           M 656.00,503.00
           C 660.47,503.01 664.61,503.28 669.00,504.22
             672.21,504.91 676.29,506.37 678.26,509.14
             681.98,514.36 678.41,522.76 671.99,524.03
             670.39,524.34 656.88,522.01 655.11,521.28
             653.41,520.58 653.23,520.14 652.00,519.00
             657.37,519.44 670.48,522.50 674.72,519.83
             678.51,517.43 678.32,511.75 674.72,508.89
             671.35,506.20 660.44,505.10 656.00,505.00
             656.00,505.00 656.00,503.00 656.00,503.00 Z
           M 481.00,510.00
           C 481.00,510.00 480.00,510.00 480.00,510.00
             480.00,510.00 481.00,511.00 481.00,511.00
             481.00,511.00 481.00,510.00 481.00,510.00 Z
           M 468.00,515.00
           C 468.00,515.00 467.00,515.00 467.00,515.00
             467.00,515.00 468.00,516.00 468.00,516.00
             468.00,516.00 468.00,515.00 468.00,515.00 Z
           M 190.00,518.00
           C 190.00,518.00 189.00,518.00 189.00,518.00
             189.00,518.00 190.00,519.00 190.00,519.00
             190.00,519.00 190.00,518.00 190.00,518.00 Z
           M 335.00,521.00
           C 335.00,521.00 334.00,521.00 334.00,521.00
             334.00,521.00 335.00,522.00 335.00,522.00
             335.00,522.00 335.00,521.00 335.00,521.00 Z
           M 143.00,527.00
           C 143.00,527.00 142.00,527.00 142.00,527.00
             142.00,527.00 143.00,528.00 143.00,528.00
             143.00,528.00 143.00,527.00 143.00,527.00 Z
           M 186.00,534.00
           C 186.00,534.00 188.29,531.42 188.29,531.42
             188.29,531.42 211.00,526.00 211.00,526.00
             211.00,526.00 211.00,532.00 211.00,532.00
             207.72,526.76 202.61,529.57 199.00,533.00
             199.00,533.00 197.00,531.00 197.00,531.00
             197.00,531.00 186.00,534.00 186.00,534.00 Z
           M 490.00,527.00
           C 490.00,527.00 480.00,529.00 480.00,529.00
             480.00,529.00 479.00,531.00 479.00,531.00
             479.00,531.00 480.00,532.00 480.00,532.00
             473.42,533.68 466.96,538.33 465.00,545.00
             473.72,548.16 472.19,545.15 482.00,536.09
             485.82,532.56 488.37,532.06 490.00,527.00 Z
           M 375.00,529.00
           C 376.57,533.91 383.92,540.20 387.83,543.87
             389.72,545.64 392.86,548.18 395.21,545.40
             397.33,542.89 394.72,539.90 392.94,538.13
             388.40,533.62 381.36,529.67 375.00,529.00 Z
           M 650.00,530.00
           C 653.60,529.28 655.53,529.01 658.00,532.00
             662.50,530.95 669.44,533.05 672.00,537.00
             666.85,535.96 664.08,535.52 660.00,532.00
             660.00,532.00 659.00,535.00 659.00,535.00
             659.00,535.00 658.00,535.00 658.00,535.00
             658.00,535.00 656.00,533.00 656.00,533.00
             659.40,537.49 666.06,544.35 671.00,547.00
             671.00,547.00 671.00,549.00 671.00,549.00
             671.00,549.00 652.00,552.00 652.00,552.00
             656.24,559.59 662.38,554.47 667.00,562.00
             667.00,562.00 652.00,556.79 652.00,556.79
             652.00,556.79 644.74,554.10 644.74,554.10
             644.74,554.10 643.00,550.00 643.00,550.00
             643.00,550.00 667.00,548.00 667.00,548.00
             667.00,548.00 667.00,546.00 667.00,546.00
             662.91,543.97 651.95,533.94 650.00,530.00 Z
           M 656.00,531.00
           C 656.00,531.00 655.00,531.00 655.00,531.00
             655.00,531.00 656.00,532.00 656.00,532.00
             656.00,532.00 656.00,531.00 656.00,531.00 Z
           M 212.00,533.00
           C 216.01,538.57 210.88,543.81 206.00,543.36
             203.43,543.13 201.41,541.11 199.00,541.58
             196.64,542.04 193.03,546.23 191.00,548.00
             191.00,548.00 200.00,534.00 200.00,534.00
             203.17,543.53 211.64,543.39 212.00,533.00 Z
           M 415.00,534.00
           C 415.00,534.00 414.00,534.00 414.00,534.00
             414.00,534.00 415.00,535.00 415.00,535.00
             415.00,535.00 415.00,534.00 415.00,534.00 Z
           M 468.00,537.00
           C 468.00,537.00 467.00,537.00 467.00,537.00
             467.00,537.00 468.00,538.00 468.00,538.00
             468.00,538.00 468.00,537.00 468.00,537.00 Z
           M 314.00,541.00
           C 314.00,541.00 313.00,541.00 313.00,541.00
             313.00,541.00 314.00,542.00 314.00,542.00
             314.00,542.00 314.00,541.00 314.00,541.00 Z
           M 419.00,541.00
           C 419.00,541.00 418.00,541.00 418.00,541.00
             418.00,541.00 419.00,542.00 419.00,542.00
             419.00,542.00 419.00,541.00 419.00,541.00 Z
           M 306.00,544.00
           C 306.00,544.00 252.00,544.00 252.00,544.00
             250.11,544.00 246.10,543.77 244.64,545.02
             241.38,547.81 247.82,559.34 250.39,561.40
             252.77,563.32 256.11,562.99 259.00,563.00
             259.00,563.00 293.00,563.00 293.00,563.00
             299.52,563.07 301.37,564.01 308.00,562.00
             304.87,552.27 306.00,554.16 306.00,544.00 Z
           M 620.00,545.00
           C 620.00,545.00 582.00,544.00 582.00,544.00
             582.00,544.00 558.00,545.00 558.00,545.00
             558.00,545.00 558.00,549.00 558.00,549.00
             561.34,553.53 559.43,557.74 559.00,563.00
             559.00,563.00 604.00,563.00 604.00,563.00
             606.20,562.98 608.90,563.10 610.87,561.98
             614.32,560.00 618.68,548.94 620.00,545.00 Z
           M 414.00,545.00
           C 414.00,545.00 413.00,545.00 413.00,545.00
             413.00,545.00 414.00,546.00 414.00,546.00
             414.00,546.00 414.00,545.00 414.00,545.00 Z
           M 710.00,545.00
           C 710.00,545.00 709.00,545.00 709.00,545.00
             709.00,545.00 710.00,546.00 710.00,546.00
             710.00,546.00 710.00,545.00 710.00,545.00 Z
           M 213.00,571.00
           C 208.31,576.68 199.32,572.88 198.24,566.00
             196.95,557.78 202.71,555.77 208.91,553.21
             213.87,551.16 213.10,550.54 219.00,550.00
             215.23,554.93 206.00,555.10 201.98,559.57
             198.00,563.98 200.95,570.60 206.02,571.27
             209.86,571.78 219.91,566.37 225.00,565.00
             222.53,569.42 217.86,570.76 213.00,571.00 Z
           M 622.00,551.00
           C 622.00,551.00 621.00,551.00 621.00,551.00
             621.00,551.00 622.00,552.00 622.00,552.00
             622.00,552.00 622.00,551.00 622.00,551.00 Z
           M 247.00,558.00
           C 247.00,558.00 246.00,558.00 246.00,558.00
             246.00,558.00 247.00,559.00 247.00,559.00
             247.00,559.00 247.00,558.00 247.00,558.00 Z
           M 428.00,558.00
           C 428.00,558.00 427.00,558.00 427.00,558.00
             427.00,558.00 428.00,559.00 428.00,559.00
             428.00,559.00 428.00,558.00 428.00,558.00 Z
           M 703.00,562.00
           C 703.00,562.00 702.00,562.00 702.00,562.00
             702.00,562.00 703.00,563.00 703.00,563.00
             703.00,563.00 703.00,562.00 703.00,562.00 Z
           M 638.00,562.00
           C 638.00,562.00 659.41,571.26 659.41,571.26
             659.41,571.26 661.00,574.00 661.00,574.00
             657.24,572.81 653.38,571.23 651.00,568.00
             651.00,568.00 647.00,569.00 647.00,569.00
             647.00,569.00 638.00,562.00 638.00,562.00 Z
           M 556.00,564.00
           C 556.00,564.00 555.00,564.00 555.00,564.00
             555.00,564.00 556.00,565.00 556.00,565.00
             556.00,565.00 556.00,564.00 556.00,564.00 Z
           M 552.00,565.00
           C 552.00,565.00 551.00,565.00 551.00,565.00
             551.00,565.00 552.00,566.00 552.00,566.00
             552.00,566.00 552.00,565.00 552.00,565.00 Z
           M 437.00,585.00
           C 438.85,579.68 449.83,568.92 455.00,567.00
             461.54,576.13 465.27,576.57 471.91,583.07
             471.91,583.07 480.32,591.98 480.32,591.98
             480.32,591.98 487.71,597.64 487.71,597.64
             487.71,597.64 497.09,606.12 497.09,606.12
             497.09,606.12 520.20,623.73 520.20,623.73
             520.20,623.73 538.00,635.47 538.00,635.47
             542.02,638.05 544.58,638.71 547.00,643.00
             539.98,640.03 534.44,641.08 527.00,641.00
             511.69,640.82 495.41,632.96 482.96,624.56
             478.53,621.57 468.96,616.42 468.00,611.00
             462.37,609.35 461.30,607.01 457.00,603.30
             457.00,603.30 437.00,585.00 437.00,585.00 Z
           M 522.00,568.00
           C 522.00,568.00 521.00,568.00 521.00,568.00
             521.00,568.00 522.00,569.00 522.00,569.00
             522.00,569.00 522.00,568.00 522.00,568.00 Z
           M 545.00,568.00
           C 545.00,568.00 544.00,568.00 544.00,568.00
             544.00,568.00 545.00,569.00 545.00,569.00
             545.00,569.00 545.00,568.00 545.00,568.00 Z
           M 743.00,568.00
           C 743.00,568.00 742.00,568.00 742.00,568.00
             742.00,568.00 743.00,569.00 743.00,569.00
             743.00,569.00 743.00,568.00 743.00,568.00 Z
           M 434.00,574.00
           C 434.00,574.00 433.00,574.00 433.00,574.00
             433.00,574.00 434.00,575.00 434.00,575.00
             434.00,575.00 434.00,574.00 434.00,574.00 Z
           M 603.00,577.00
           C 596.65,575.20 581.35,576.00 574.00,575.95
             574.00,575.95 518.00,575.95 518.00,575.95
             518.00,575.95 509.00,575.95 509.00,575.95
             503.97,576.56 489.45,588.65 503.00,594.84
             506.25,596.13 513.01,595.01 517.00,594.84
             517.00,594.84 569.00,594.84 569.00,594.84
             572.92,595.00 587.38,595.93 589.83,594.84
             594.17,592.45 601.11,581.64 603.00,577.00 Z
           M 632.00,574.00
           C 632.00,574.00 633.89,578.52 633.89,578.52
             633.89,578.52 652.00,591.00 652.00,591.00
             652.00,591.00 651.00,592.00 651.00,592.00
             651.00,592.00 630.00,581.00 630.00,581.00
             630.00,581.00 625.00,586.00 625.00,586.00
             625.00,586.00 632.00,574.00 632.00,574.00 Z
           M 261.49,576.57
           C 258.76,579.60 261.83,582.48 263.78,585.28
             266.00,588.46 269.19,593.94 273.04,594.90
             274.57,595.55 280.78,595.01 283.00,594.90
             283.00,594.90 352.00,594.90 352.00,594.90
             354.19,595.00 356.90,595.09 359.00,594.90
             370.32,591.36 363.48,581.74 357.00,577.60
             354.07,575.73 351.31,576.01 348.00,576.00
             348.00,576.00 290.00,576.00 290.00,576.00
             283.97,576.00 266.18,575.39 261.49,576.57 Z
           M 258.00,578.00
           C 258.00,578.00 257.00,578.00 257.00,578.00
             257.00,578.00 258.00,579.00 258.00,579.00
             258.00,579.00 258.00,578.00 258.00,578.00 Z
           M 502.00,578.00
           C 502.00,578.00 501.00,578.00 501.00,578.00
             501.00,578.00 502.00,579.00 502.00,579.00
             502.00,579.00 502.00,578.00 502.00,578.00 Z
           M 219.89,596.00
           C 219.89,596.00 219.89,602.08 219.89,602.08
             220.25,605.15 223.46,608.50 226.79,607.34
             234.05,604.83 223.99,593.51 231.15,588.78
             236.66,585.14 245.33,593.72 239.76,601.00
             239.76,601.00 239.76,596.00 239.76,596.00
             238.41,589.54 232.69,588.92 230.66,592.98
             228.70,596.92 235.05,605.16 229.57,608.59
             222.72,612.89 212.96,603.54 219.89,596.00 Z
           M 445.00,589.00
           C 445.00,589.00 444.00,589.00 444.00,589.00
             444.00,589.00 445.00,590.00 445.00,590.00
             445.00,590.00 445.00,589.00 445.00,589.00 Z
           M 319.00,645.00
           C 326.99,646.04 332.84,647.02 341.00,647.00
             348.18,646.99 345.44,646.76 351.28,645.51
             351.28,645.51 358.00,644.50 358.00,644.50
             370.78,640.98 386.01,630.17 396.00,621.58
             403.22,615.36 410.96,609.24 417.49,602.29
             419.79,599.85 427.26,591.76 430.07,591.08
             433.64,590.21 437.61,595.27 440.16,597.47
             440.16,597.47 458.01,614.05 458.01,614.05
             462.29,617.90 465.32,619.32 467.00,625.00
             472.24,624.81 474.75,628.10 479.00,631.02
             485.45,635.45 493.64,640.72 501.00,643.29
             509.33,646.20 518.26,647.01 527.00,647.00
             532.05,646.99 539.83,644.96 543.00,646.00
             539.24,647.07 533.77,650.48 530.00,652.41
             522.13,656.45 507.17,663.83 499.00,666.22
             483.85,670.65 457.43,676.98 442.00,677.00
             442.00,677.00 420.00,677.00 420.00,677.00
             403.48,676.97 382.85,671.58 366.91,667.09
             355.76,663.96 346.39,659.42 336.00,654.46
             331.30,652.22 322.67,648.27 319.00,645.00 Z
           M 475.00,591.00
           C 475.00,591.00 474.00,591.00 474.00,591.00
             474.00,591.00 475.00,592.00 475.00,592.00
             475.00,592.00 475.00,591.00 475.00,591.00 Z
           M 498.00,595.00
           C 498.00,595.00 497.00,595.00 497.00,595.00
             497.00,595.00 498.00,596.00 498.00,596.00
             498.00,596.00 498.00,595.00 498.00,595.00 Z
           M 274.00,598.00
           C 274.00,598.00 273.00,598.00 273.00,598.00
             273.00,598.00 274.00,599.00 274.00,599.00
             274.00,599.00 274.00,598.00 274.00,598.00 Z
           M 669.00,598.00
           C 669.00,598.00 668.00,598.00 668.00,598.00
             668.00,598.00 669.00,599.00 669.00,599.00
             669.00,599.00 669.00,598.00 669.00,598.00 Z
           M 375.00,601.00
           C 375.00,601.00 374.00,601.00 374.00,601.00
             374.00,601.00 375.00,602.00 375.00,602.00
             375.00,602.00 375.00,601.00 375.00,601.00 Z
           M 442.00,601.00
           C 442.00,601.00 441.00,601.00 441.00,601.00
             441.00,601.00 442.00,602.00 442.00,602.00
             442.00,602.00 442.00,601.00 442.00,601.00 Z
           M 667.00,601.00
           C 667.00,601.00 666.00,601.00 666.00,601.00
             666.00,601.00 667.00,602.00 667.00,602.00
             667.00,602.00 667.00,601.00 667.00,601.00 Z
           M 673.00,602.00
           C 673.00,602.00 672.00,602.00 672.00,602.00
             672.00,602.00 673.00,603.00 673.00,603.00
             673.00,603.00 673.00,602.00 673.00,602.00 Z
           M 140.00,604.00
           C 140.00,604.00 139.00,604.00 139.00,604.00
             139.00,604.00 140.00,605.00 140.00,605.00
             140.00,605.00 140.00,604.00 140.00,604.00 Z
           M 492.00,604.00
           C 492.00,604.00 491.00,604.00 491.00,604.00
             491.00,604.00 492.00,605.00 492.00,605.00
             492.00,605.00 492.00,604.00 492.00,604.00 Z
           M 343.00,607.00
           C 343.00,607.00 285.00,607.00 285.00,607.00
             285.87,612.27 289.16,614.19 292.83,617.91
             301.83,627.03 303.52,628.22 316.00,628.00
             318.80,627.95 320.44,627.94 323.00,626.57
             329.54,623.06 335.39,614.59 343.00,611.00
             343.00,611.00 343.00,607.00 343.00,607.00 Z
           M 577.00,611.00
           C 575.41,606.45 573.46,607.03 569.00,607.00
             569.00,607.00 538.00,607.00 538.00,607.00
             532.08,607.00 525.71,606.38 520.00,608.00
             522.15,613.18 523.89,613.47 528.00,617.06
             538.32,626.08 538.20,628.25 552.00,628.00
             563.00,627.79 568.88,616.97 577.00,611.00 Z
           M 231.00,621.00
           C 233.91,618.54 245.17,609.24 248.17,608.28
             252.66,606.83 257.07,613.10 257.00,617.00
             254.72,614.07 251.40,609.04 247.12,611.79
             246.01,612.51 244.99,613.70 244.77,615.04
             244.35,617.63 246.99,619.52 247.00,623.00
             244.18,619.61 241.64,615.93 237.16,619.74
             236.12,620.62 235.23,621.66 235.18,623.09
             235.13,624.81 238.05,629.19 239.00,631.00
             234.29,628.05 233.25,625.97 231.00,621.00 Z
           M 283.00,608.00
           C 283.00,608.00 282.00,608.00 282.00,608.00
             282.00,608.00 283.00,609.00 283.00,609.00
             283.00,609.00 283.00,608.00 283.00,608.00 Z
           M 392.00,608.00
           C 392.00,608.00 391.00,608.00 391.00,608.00
             391.00,608.00 392.00,609.00 392.00,609.00
             392.00,609.00 392.00,608.00 392.00,608.00 Z
           M 468.00,608.00
           C 468.00,608.00 467.00,608.00 467.00,608.00
             467.00,608.00 468.00,609.00 468.00,609.00
             468.00,609.00 468.00,608.00 468.00,608.00 Z
           M 607.00,611.00
           C 607.00,611.00 611.00,610.41 611.00,610.41
             611.00,610.41 631.75,616.64 631.75,616.64
             631.75,616.64 634.00,618.89 634.00,618.89
             632.39,618.77 630.63,618.34 629.01,618.89
             625.99,619.59 621.26,624.81 621.14,628.00
             621.07,629.81 622.20,631.46 623.00,632.90
             623.00,632.90 620.54,632.90 620.54,632.90
             620.54,632.90 610.00,616.00 610.00,616.00
             614.74,618.74 614.76,621.74 617.31,623.18
             620.40,624.91 623.07,621.32 622.89,619.11
             622.70,616.73 615.30,610.20 609.00,616.00
             609.00,616.00 607.00,611.00 607.00,611.00 Z
           M 579.00,612.00
           C 579.00,612.00 578.00,612.00 578.00,612.00
             578.00,612.00 579.00,613.00 579.00,613.00
             579.00,613.00 579.00,612.00 579.00,612.00 Z
           M 190.00,615.00
           C 190.00,615.00 189.00,615.00 189.00,615.00
             189.00,615.00 190.00,616.00 190.00,616.00
             190.00,616.00 190.00,615.00 190.00,615.00 Z
           M 204.00,615.00
           C 204.00,615.00 203.00,615.00 203.00,615.00
             203.00,615.00 204.00,616.00 204.00,616.00
             204.00,616.00 204.00,615.00 204.00,615.00 Z
           M 362.00,615.00
           C 362.00,615.00 361.00,615.00 361.00,615.00
             361.00,615.00 362.00,616.00 362.00,616.00
             362.00,616.00 362.00,615.00 362.00,615.00 Z
           M 414.00,624.00
           C 412.56,622.64 411.74,621.77 409.91,620.83
             399.32,615.40 402.59,627.95 403.08,632.00
             403.08,632.00 403.08,641.00 403.08,641.00
             403.58,643.04 404.82,645.68 403.85,647.61
             401.88,651.53 394.98,651.96 392.23,648.79
             389.86,646.06 390.04,643.35 390.00,640.00
             390.00,640.00 388.00,640.00 388.00,640.00
             386.77,645.18 384.57,650.58 386.85,655.98
             390.48,664.58 403.18,662.11 407.57,656.87
             409.48,654.59 409.67,652.70 410.32,650.00
             413.72,638.00 410.07,641.27 410.32,634.00
             410.28,631.64 411.30,629.24 412.00,627.00
             412.00,627.00 416.00,633.00 416.00,633.00
             416.00,633.00 419.00,632.00 419.00,632.00
             419.00,632.00 424.00,643.00 424.00,643.00
             419.26,644.20 413.28,646.45 411.00,651.00
             419.51,651.00 423.99,652.52 431.00,647.00
             432.14,648.56 432.28,649.16 434.22,650.21
             437.53,651.42 455.35,651.42 459.00,650.21
             459.00,650.21 466.00,647.46 466.00,647.46
             469.97,646.19 472.95,647.64 475.47,646.00
             477.88,644.43 478.47,641.60 479.00,639.00
             479.00,639.00 469.00,635.48 469.00,635.48
             460.44,631.97 453.85,626.90 449.00,639.00
             449.00,639.00 456.00,641.00 456.00,641.00
             456.00,641.00 439.00,641.00 439.00,641.00
             439.00,641.00 439.00,619.00 439.00,619.00
             427.68,620.84 431.26,629.04 429.00,637.00
             427.58,631.03 421.11,611.87 414.00,624.00 Z
           M 572.00,621.00
           C 572.00,621.00 571.00,621.00 571.00,621.00
             571.00,621.00 572.00,622.00 572.00,622.00
             572.00,622.00 572.00,621.00 572.00,621.00 Z
           M 398.00,622.00
           C 398.00,622.00 397.00,622.00 397.00,622.00
             397.00,622.00 398.00,623.00 398.00,623.00
             398.00,623.00 398.00,622.00 398.00,622.00 Z
           M 263.00,623.00
           C 267.51,629.71 257.75,636.19 259.00,647.00
             259.00,647.00 269.00,644.00 269.00,644.00
             266.44,647.12 258.98,649.07 255.00,650.00
             255.00,650.00 261.00,632.00 261.00,632.00
             255.18,632.28 251.61,637.77 247.00,641.00
             247.00,641.00 246.00,640.00 246.00,640.00
             246.00,640.00 263.00,623.00 263.00,623.00 Z
           M 598.00,623.00
           C 598.00,623.00 604.00,635.00 604.00,635.00
             600.30,631.62 597.61,628.17 598.00,623.00 Z
           M 200.00,628.00
           C 200.00,628.00 199.00,628.00 199.00,628.00
             199.00,628.00 200.00,629.00 200.00,629.00
             200.00,629.00 200.00,628.00 200.00,628.00 Z
           M 559.00,628.00
           C 559.00,628.00 558.00,628.00 558.00,628.00
             558.00,628.00 559.00,629.00 559.00,629.00
             559.00,629.00 559.00,628.00 559.00,628.00 Z
           M 539.00,629.00
           C 539.00,629.00 538.00,629.00 538.00,629.00
             538.00,629.00 539.00,630.00 539.00,630.00
             539.00,630.00 539.00,629.00 539.00,629.00 Z
           M 137.00,632.00
           C 137.00,632.00 136.00,632.00 136.00,632.00
             136.00,632.00 137.00,633.00 137.00,633.00
             137.00,633.00 137.00,632.00 137.00,632.00 Z
           M 203.00,632.00
           C 203.00,632.00 202.00,632.00 202.00,632.00
             202.00,632.00 203.00,633.00 203.00,633.00
             203.00,633.00 203.00,632.00 203.00,632.00 Z
           M 585.00,634.00
           C 590.51,633.84 601.47,641.20 604.00,646.00
             604.00,646.00 606.00,638.00 606.00,638.00
             606.00,638.00 604.00,638.00 604.00,638.00
             604.00,638.00 605.00,635.00 605.00,635.00
             607.62,639.20 610.61,643.78 607.00,648.00
             607.00,648.00 589.00,637.00 589.00,637.00
             589.00,637.00 592.00,650.00 592.00,650.00
             592.00,650.00 585.00,638.00 585.00,638.00
             585.00,638.00 587.00,635.00 587.00,635.00
             587.00,635.00 585.00,635.00 585.00,635.00
             585.00,635.00 585.00,634.00 585.00,634.00 Z
           M 723.00,634.00
           C 723.00,634.00 722.00,634.00 722.00,634.00
             722.00,634.00 723.00,635.00 723.00,635.00
             723.00,635.00 723.00,634.00 723.00,634.00 Z
           M 318.00,635.00
           C 318.00,635.00 317.00,635.00 317.00,635.00
             317.00,635.00 318.00,636.00 318.00,636.00
             318.00,636.00 318.00,635.00 318.00,635.00 Z
           M 381.00,635.00
           C 381.00,635.00 380.00,635.00 380.00,635.00
             380.00,635.00 381.00,636.00 381.00,636.00
             381.00,636.00 381.00,635.00 381.00,635.00 Z
           M 417.00,635.00
           C 417.00,635.00 416.00,635.00 416.00,635.00
             416.00,635.00 417.00,636.00 417.00,636.00
             417.00,636.00 417.00,635.00 417.00,635.00 Z
           M 221.00,638.00
           C 221.00,638.00 220.00,638.00 220.00,638.00
             220.00,638.00 221.00,639.00 221.00,639.00
             221.00,639.00 221.00,638.00 221.00,638.00 Z
           M 415.00,638.00
           C 415.00,638.00 414.00,638.00 414.00,638.00
             414.00,638.00 415.00,639.00 415.00,639.00
             415.00,639.00 415.00,638.00 415.00,638.00 Z
           M 280.00,638.00
           C 282.38,641.70 280.37,642.94 277.65,645.79
             273.95,649.65 268.50,655.41 264.00,658.00
             264.00,658.00 275.00,643.00 275.00,643.00
             275.00,643.00 270.00,644.00 270.00,644.00
             270.00,644.00 280.00,638.00 280.00,638.00 Z
           M 210.00,645.00
           C 210.00,645.00 209.00,645.00 209.00,645.00
             209.00,645.00 210.00,646.00 210.00,646.00
             210.00,646.00 210.00,645.00 210.00,645.00 Z
           M 574.00,644.00
           C 578.48,646.74 589.35,652.92 592.00,657.00
             592.00,657.00 573.00,647.00 573.00,647.00
             573.00,647.00 574.00,644.00 574.00,644.00 Z
           M 288.00,645.00
           C 293.32,647.31 307.53,657.16 296.70,662.47
             295.43,663.09 291.56,663.71 290.00,664.00
             290.00,664.00 286.00,658.00 286.00,658.00
             287.76,658.70 291.36,660.58 293.00,660.70
             296.60,660.95 299.32,657.68 297.21,654.10
             295.63,651.43 291.67,649.44 289.00,648.00
             289.00,648.00 285.00,658.00 285.00,658.00
             282.44,659.32 278.11,662.31 278.59,665.74
             278.59,665.74 282.00,671.00 282.00,671.00
             282.00,671.00 273.00,665.00 273.00,665.00
             277.63,661.17 285.59,650.64 288.00,645.00 Z
           M 468.00,649.00
           C 468.00,649.00 467.00,649.00 467.00,649.00
             467.00,649.00 468.00,650.00 468.00,650.00
             468.00,650.00 468.00,649.00 468.00,649.00 Z
           M 650.00,651.00
           C 650.00,651.00 649.00,651.00 649.00,651.00
             649.00,651.00 650.00,652.00 650.00,652.00
             650.00,652.00 650.00,651.00 650.00,651.00 Z
           M 593.00,652.00
           C 596.84,654.52 597.05,656.65 594.00,660.00
             594.00,660.00 593.00,652.00 593.00,652.00 Z
           M 558.00,654.96
           C 559.58,654.80 560.32,654.48 562.00,654.96
             566.51,656.06 579.84,666.04 583.00,670.00
             583.00,670.00 579.00,670.00 579.00,670.00
             577.03,665.22 572.47,671.24 566.00,673.00
             566.00,673.00 565.00,679.00 565.00,679.00
             565.00,679.00 567.00,681.00 567.00,681.00
             563.37,678.58 564.17,676.89 563.03,673.00
             563.03,673.00 558.00,654.96 558.00,654.96 Z
           M 565.00,672.00
           C 566.62,671.54 567.43,671.45 568.95,670.49
             577.55,665.09 567.01,659.50 562.00,657.00
             562.00,657.00 561.00,658.00 561.00,658.00
             561.00,658.00 565.00,672.00 565.00,672.00 Z
           M 355.00,659.00
           C 355.00,659.00 354.00,659.00 354.00,659.00
             354.00,659.00 355.00,660.00 355.00,660.00
             355.00,660.00 355.00,659.00 355.00,659.00 Z
           M 310.00,660.00
           C 314.03,661.74 318.57,663.21 321.00,667.00
             321.00,667.00 309.00,664.00 309.00,664.00
             308.07,669.30 307.45,668.66 309.00,674.00
             309.00,674.00 305.00,673.00 305.00,673.00
             305.00,673.00 300.00,680.00 300.00,680.00
             300.00,680.00 309.00,688.00 309.00,688.00
             309.00,688.00 298.00,683.00 298.00,683.00
             298.00,683.00 310.00,660.00 310.00,660.00 Z
           M 541.00,665.00
           C 544.29,667.08 552.81,681.06 552.47,685.00
             552.04,689.90 545.70,693.77 540.00,689.00
             542.79,688.87 547.41,689.88 549.17,687.48
             550.69,685.70 549.80,683.80 549.17,682.00
             547.67,678.70 544.23,670.16 541.00,669.00
             541.00,669.00 541.00,665.00 541.00,665.00 Z
           M 292.00,666.00
           C 292.00,666.00 294.00,666.00 294.00,666.00
             291.49,673.17 290.12,672.97 283.00,673.00
             283.00,673.00 283.00,671.00 283.00,671.00
             288.34,670.81 289.08,670.59 292.00,666.00 Z
           M 250.00,669.00
           C 250.00,669.00 249.00,669.00 249.00,669.00
             249.00,669.00 250.00,670.00 250.00,670.00
             250.00,670.00 250.00,669.00 250.00,669.00 Z
           M 612.00,672.00
           C 612.00,672.00 611.00,672.00 611.00,672.00
             611.00,672.00 612.00,673.00 612.00,673.00
             612.00,673.00 612.00,672.00 612.00,672.00 Z
           M 329.00,672.00
           C 329.00,672.00 331.00,672.00 331.00,672.00
             331.00,672.00 322.00,694.00 322.00,694.00
             322.00,694.00 329.00,698.00 329.00,698.00
             329.00,698.00 319.00,694.00 319.00,694.00
             319.00,694.00 329.00,672.00 329.00,672.00 Z
           M 310.00,674.00
           C 310.00,674.00 314.00,677.00 314.00,677.00
             314.00,677.00 310.00,674.00 310.00,674.00 Z
           M 227.00,676.00
           C 227.00,676.00 226.00,676.00 226.00,676.00
             226.00,676.00 227.00,677.00 227.00,677.00
             227.00,677.00 227.00,676.00 227.00,676.00 Z
           M 710.00,676.00
           C 710.00,676.00 709.00,676.00 709.00,676.00
             709.00,676.00 710.00,677.00 710.00,677.00
             710.00,677.00 710.00,676.00 710.00,676.00 Z
           M 348.00,679.00
           C 348.00,679.00 348.62,683.04 348.62,683.04
             348.62,683.04 341.54,700.73 341.54,700.73
             341.54,700.73 339.00,703.00 339.00,703.00
             339.00,703.00 348.00,679.00 348.00,679.00 Z
           M 502.00,682.00
           C 508.10,685.65 507.23,694.22 510.31,699.94
             511.73,702.59 513.59,703.48 516.00,705.00
             516.00,705.00 510.00,707.00 510.00,707.00
             510.00,707.00 506.75,698.00 506.75,698.00
             506.75,698.00 502.00,682.00 502.00,682.00 Z
           M 359.00,683.00
           C 359.00,683.00 361.00,683.00 361.00,683.00
             361.00,683.00 357.00,695.00 357.00,695.00
             357.00,695.00 361.00,696.00 361.00,696.00
             354.64,701.59 357.27,701.65 354.00,708.00
             352.86,702.20 356.19,688.32 359.00,683.00 Z
           M 376.00,688.00
           C 376.00,688.00 378.00,688.00 378.00,688.00
             378.00,688.00 372.00,713.00 372.00,713.00
             368.09,710.04 370.70,705.00 372.00,701.00
             372.00,701.00 366.00,698.00 366.00,698.00
             366.00,698.00 372.00,699.00 372.00,699.00
             372.00,699.00 376.00,688.00 376.00,688.00 Z
           M 479.00,715.00
           C 479.00,715.00 481.18,696.46 481.18,696.46
             481.35,694.25 480.88,690.30 483.30,689.15
             485.94,687.91 488.11,691.25 489.41,693.02
             489.41,693.02 500.00,710.00 500.00,710.00
             500.00,710.00 499.00,711.00 499.00,711.00
             499.00,711.00 495.00,705.00 495.00,705.00
             491.66,706.54 490.57,707.29 487.00,706.00
             487.00,706.00 493.00,705.00 493.00,705.00
             493.00,705.00 488.00,692.00 488.00,692.00
             488.00,692.00 484.00,691.00 484.00,691.00
             484.00,691.00 482.00,706.00 482.00,706.00
             482.00,706.00 486.00,708.00 486.00,708.00
             486.00,708.00 481.00,709.00 481.00,709.00
             481.87,712.36 482.49,713.54 479.00,715.00 Z
           M 399.00,692.00
           C 399.00,692.00 402.00,692.00 402.00,692.00
             400.79,699.92 398.72,700.02 405.00,706.00
             398.36,708.07 399.02,711.97 399.00,718.00
             399.00,718.00 397.06,718.00 397.06,718.00
             397.06,718.00 397.06,708.00 397.06,708.00
             397.06,708.00 399.00,692.00 399.00,692.00 Z
           M 457.00,693.00
           C 461.27,700.35 456.57,715.82 467.00,715.85
             468.73,715.86 470.34,715.40 472.00,715.00
             469.06,718.33 463.17,717.96 459.00,718.00
             458.74,709.71 454.71,701.33 457.00,693.00 Z
           M 417.00,694.00
           C 417.00,694.00 418.70,697.11 418.70,697.11
             418.70,697.11 417.00,715.88 417.00,715.88
             417.00,715.88 414.11,719.00 414.11,719.00
             414.11,719.00 414.11,708.58 414.11,708.58
             414.11,708.58 406.00,705.00 406.00,705.00
             406.00,705.00 416.00,705.00 416.00,705.00
             416.00,705.00 417.00,694.00 417.00,694.00 Z
           M 427.00,721.00
           C 427.00,721.00 432.14,704.00 432.14,704.00
             432.14,704.00 434.93,696.45 434.93,696.45
             434.93,696.45 440.00,695.00 440.00,695.00
             440.00,695.00 438.00,697.00 438.00,697.00
             442.95,700.21 446.11,713.29 449.00,719.00
             449.00,719.00 448.00,720.00 448.00,720.00
             443.91,715.82 443.50,713.86 437.00,714.02
             435.38,714.06 433.77,714.15 432.34,715.02
             430.76,715.98 428.56,719.33 427.00,721.00 Z
           M 579.00,695.00
           C 579.00,695.00 578.00,695.00 578.00,695.00
             578.00,695.00 579.00,696.00 579.00,696.00
             579.00,696.00 579.00,695.00 579.00,695.00 Z
           M 437.00,698.00
           C 437.00,698.00 432.00,712.00 432.00,712.00
             432.00,712.00 443.00,712.00 443.00,712.00
             442.20,706.90 440.45,701.90 437.00,698.00 Z
           M 623.00,699.00
           C 623.00,699.00 622.00,699.00 622.00,699.00
             622.00,699.00 623.00,700.00 623.00,700.00
             623.00,700.00 623.00,699.00 623.00,699.00 Z
           M 521.00,701.00
           C 521.02,703.77 519.18,703.55 517.00,703.00
             517.00,703.00 521.00,701.00 521.00,701.00 Z
           M 562.00,703.00
           C 562.00,703.00 561.00,703.00 561.00,703.00
             561.00,703.00 562.00,704.00 562.00,704.00
             562.00,704.00 562.00,703.00 562.00,703.00 Z
           M 572.00,705.00
           C 572.00,705.00 571.00,705.00 571.00,705.00
             571.00,705.00 572.00,706.00 572.00,706.00
             572.00,706.00 572.00,705.00 572.00,705.00 Z
           M 616.00,708.00
           C 616.00,708.00 615.00,708.00 615.00,708.00
             615.00,708.00 616.00,709.00 616.00,709.00
             616.00,709.00 616.00,708.00 616.00,708.00 Z
           M 177.00,742.00
           C 177.00,742.00 176.00,742.00 176.00,742.00
             176.00,742.00 177.00,743.00 177.00,743.00
             177.00,743.00 177.00,742.00 177.00,742.00 Z
           M 687.00,746.00
           C 687.00,746.00 686.00,746.00 686.00,746.00
             686.00,746.00 687.00,747.00 687.00,747.00
             687.00,747.00 687.00,746.00 687.00,746.00 Z
           M 190.00,766.00
           C 190.00,766.00 189.00,766.00 189.00,766.00
             189.00,766.00 190.00,767.00 190.00,767.00
             190.00,767.00 190.00,766.00 190.00,766.00 Z
           M 643.00,773.00
           C 643.00,773.00 642.00,773.00 642.00,773.00
             642.00,773.00 643.00,774.00 643.00,774.00
             643.00,774.00 643.00,773.00 643.00,773.00 Z
           M 666.00,773.00
           C 666.00,773.00 665.00,773.00 665.00,773.00
             665.00,773.00 666.00,774.00 666.00,774.00
             666.00,774.00 666.00,773.00 666.00,773.00 Z
           M 643.00,776.00
           C 643.00,776.00 642.00,776.00 642.00,776.00
             642.00,776.00 643.00,777.00 643.00,777.00
             643.00,777.00 643.00,776.00 643.00,776.00 Z
           M 217.00,779.00
           C 217.00,779.00 216.00,779.00 216.00,779.00
             216.00,779.00 217.00,780.00 217.00,780.00
             217.00,780.00 217.00,779.00 217.00,779.00 Z" />
</svg>
